<svg width="500" height="501" viewBox="0 0 500 501" fill="none" xmlns="http://www.w3.org/2000/svg">
<path d="M500 382.9H0V383.15H500V382.9Z" fill="#FDEEEE"/>
<path d="M449.9 398.99H428.22V399.24H449.9V398.99Z" fill="#FDEEEE"/>
<path d="M344.67 393.81H310.56V394.06H344.67V393.81Z" fill="#FDEEEE"/>
<path d="M441.12 389.71H396.59V389.96H441.12V389.71Z" fill="#FDEEEE"/>
<path d="M173.02 394.75H161.88V395H173.02V394.75Z" fill="#FDEEEE"/>
<path d="M152.97 394.75H114.58V395H152.97V394.75Z" fill="#FDEEEE"/>
<path d="M94.0096 390.53H66.3096V390.78H94.0096V390.53Z" fill="#FDEEEE"/>
<path d="M237 338.3H43.91C42.3973 338.297 40.9475 337.695 39.8788 336.624C38.8102 335.554 38.21 334.103 38.21 332.59V61.16C38.2231 59.656 38.8292 58.218 39.8964 57.1582C40.9637 56.0985 42.4059 55.5026 43.91 55.5H237C238.514 55.5 239.967 56.1016 241.038 57.1724C242.108 58.2433 242.71 59.6956 242.71 61.21V332.59C242.71 334.104 242.108 335.557 241.038 336.628C239.967 337.698 238.514 338.3 237 338.3V338.3ZM43.91 55.7C42.4636 55.7026 41.0774 56.2791 40.0556 57.3027C39.0338 58.3264 38.46 59.7136 38.46 61.16V332.59C38.46 334.036 39.0338 335.424 40.0556 336.447C41.0774 337.471 42.4636 338.047 43.91 338.05H237C238.447 338.047 239.834 337.471 240.858 336.448C241.881 335.424 242.457 334.037 242.46 332.59V61.16C242.457 59.7127 241.881 58.3255 240.858 57.3021C239.834 56.2787 238.447 55.7026 237 55.7H43.91Z" fill="#FDEEEE"/>
<path d="M453.31 338.3H260.21C258.696 338.297 257.246 337.695 256.175 336.625C255.105 335.554 254.503 334.104 254.5 332.59V61.16C254.516 59.6551 255.124 58.2171 256.193 57.1576C257.262 56.0981 258.705 55.5025 260.21 55.5H453.31C454.812 55.5052 456.252 56.1022 457.317 57.1617C458.382 58.2212 458.987 59.6578 459 61.16V332.59C459 334.101 458.401 335.55 457.335 336.621C456.268 337.691 454.821 338.295 453.31 338.3V338.3ZM260.21 55.7C258.763 55.7026 257.375 56.2787 256.352 57.3021C255.329 58.3255 254.753 59.7127 254.75 61.16V332.59C254.753 334.037 255.329 335.424 256.352 336.448C257.375 337.471 258.763 338.047 260.21 338.05H453.31C454.757 338.047 456.145 337.471 457.168 336.448C458.191 335.424 458.767 334.037 458.77 332.59V61.16C458.767 59.7127 458.191 58.3255 457.168 57.3021C456.145 56.2787 454.757 55.7026 453.31 55.7H260.21Z" fill="#FDEEEE"/>
<path d="M216.07 201.38L216.52 188.24L208.46 185.6C208.113 181.147 207.391 176.731 206.3 172.4L213.14 167.4L208.5 155.06L200.04 155.74C198.034 151.764 195.692 147.967 193.04 144.39L197.42 137.08L188.42 127.47L180.86 131.34C177.46 128.434 173.828 125.812 170 123.5L171.22 115.1L159.22 109.66L153.72 116.1C149.477 114.743 145.129 113.739 140.72 113.1L138.72 104.87L125.54 104.42L122.94 112.49C118.491 112.84 114.079 113.559 109.75 114.64L104.67 107.84L92.3298 112.45L93.0098 120.91C89.0361 122.946 85.2396 125.311 81.6598 127.98L74.2998 123.5L64.6498 132.5L68.5198 140.1C65.6132 143.483 63.0035 147.109 60.7198 150.94L52.3298 149.68L46.8498 161.68L53.3298 167.17C51.9629 171.41 50.9593 175.759 50.3298 180.17L41.9998 182.26L41.5498 195.4L49.6498 198.04C49.9849 202.49 50.7042 206.904 51.7998 211.23L44.9598 216.23L49.6098 228.58L58.0698 227.9C60.0705 231.879 62.4126 235.676 65.0698 239.25L60.6798 246.56L69.6798 256.17L77.2398 252.3C80.6304 255.205 84.2562 257.824 88.0798 260.13L86.8198 268.52L98.8198 273.97L104.35 267.53C108.593 268.9 112.941 269.92 117.35 270.58L119.35 278.81L132.53 279.26L135.13 271.19C139.581 270.836 143.996 270.117 148.33 269.04L153.33 275.84L165.67 271.23L165.03 262.77C168.996 260.721 172.792 258.357 176.38 255.7L183.65 260.08L193.3 251.08L189.43 243.48C192.337 240.098 194.947 236.471 197.23 232.64L205.62 233.9L211.1 221.9L204.62 216.4C206.01 212.163 207.03 207.813 207.67 203.4L216.07 201.38ZM127.28 243.95C116.968 243.602 106.991 240.203 98.6106 234.183C90.2305 228.164 83.824 219.794 80.2014 210.133C76.5788 200.472 75.9029 189.953 78.2592 179.908C80.6155 169.863 85.8981 160.742 93.4388 153.699C100.98 146.657 110.44 142.009 120.622 140.344C130.805 138.678 141.253 140.07 150.644 144.344C160.035 148.617 167.948 155.58 173.382 164.351C178.816 173.122 181.526 183.308 181.17 193.62C180.695 207.44 174.752 220.505 164.646 229.943C154.54 239.381 141.1 244.42 127.28 243.95V243.95Z" fill="#FDEEEE"/>
<path d="M441 157.92L444.31 154.83L443 152.22C443.999 151.05 444.899 149.799 445.69 148.48L448.59 148.91L450.46 144.77L448.24 142.88C448.718 141.416 449.069 139.914 449.29 138.39L452.14 137.68L452.28 133.14L449.5 132.24C449.378 130.702 449.13 129.177 448.76 127.68L451.11 125.93L449.51 121.68L446.6 121.91C445.898 120.539 445.085 119.228 444.17 117.99L445.68 115.49L442.57 112.17L439.97 113.5C438.799 112.503 437.548 111.603 436.23 110.81L436.65 107.91L432.52 106.02L430.62 108.25C429.153 107.793 427.652 107.459 426.13 107.25L425.42 104.41L420.88 104.24L419.97 107.04C418.438 107.157 416.919 107.405 415.43 107.78L413.69 105.43L409.43 107.02L409.67 109.94C408.295 110.635 406.984 111.448 405.75 112.37L403.23 110.86L399.91 113.95L401.2 116.5C400.193 117.666 399.29 118.917 398.5 120.24L395.61 119.81L393.73 123.95L395.96 125.85C395.498 127.312 395.163 128.811 394.96 130.33L392.1 131.04L391.96 135.58L394.75 136.48C394.864 138.018 395.108 139.543 395.48 141.04L393.12 142.78L394.72 147.03L397.64 146.81C398.342 148.181 399.154 149.492 400.07 150.73L398.56 153.23L401.67 156.55L404.27 155.22C405.439 156.22 406.69 157.12 408.01 157.91L407.58 160.8L411.72 162.69L413.62 160.47C415.088 160.922 416.589 161.256 418.11 161.47L418.82 164.31L423.36 164.48L424.27 161.68C425.802 161.564 427.321 161.316 428.81 160.94L430.55 163.29L434.81 161.7L434.58 158.78C435.951 158.084 437.259 157.271 438.49 156.35L441 157.92ZM417.38 138.79C416.507 137.854 415.931 136.681 415.725 135.417C415.518 134.154 415.692 132.858 416.222 131.693C416.753 130.529 417.617 129.547 418.705 128.874C419.794 128.2 421.057 127.865 422.337 127.91C423.616 127.954 424.853 128.378 425.891 129.126C426.93 129.874 427.723 130.913 428.171 132.112C428.619 133.311 428.701 134.616 428.407 135.861C428.113 137.107 427.457 138.238 426.52 139.11C425.898 139.696 425.167 140.153 424.367 140.454C423.568 140.756 422.717 140.896 421.863 140.866C421.009 140.836 420.17 140.637 419.394 140.281C418.617 139.925 417.919 139.418 417.34 138.79H417.38Z" fill="#FDEEEE"/>
<path d="M320 292.84L309.66 285.69C308.646 281.967 307.252 278.358 305.5 274.92L308.15 264.52L293.15 248.46L282.59 250.39C279.277 248.405 275.769 246.767 272.12 245.5V245.5L265.7 234.69L243.7 233.94L236.56 244.28C232.841 245.293 229.236 246.683 225.8 248.43L215.4 245.78L199.34 260.78L201.27 271.32C199.287 274.64 197.652 278.155 196.39 281.81L185.58 288.23L184.83 310.23L195.18 317.37C196.177 321.113 197.568 324.74 199.33 328.19V328.19L196.65 338.5L211.65 354.56L222.14 352.64C225.478 354.627 229.009 356.269 232.68 357.54V357.54L239.09 368.33L261.09 369.09L268.22 358.75C271.972 357.737 275.611 356.343 279.08 354.59L289.42 357.23L305.49 342.23L303.56 331.69C305.549 328.37 307.185 324.851 308.44 321.19V321.19L319.25 314.77L320 292.84ZM251.55 326.23C246.666 326.063 241.941 324.452 237.973 321.6C234.005 318.748 230.971 314.783 229.256 310.207C227.541 305.631 227.221 300.649 228.337 295.892C229.453 291.134 231.955 286.814 235.526 283.478C239.097 280.142 243.576 277.94 248.399 277.149C253.221 276.359 258.17 277.017 262.619 279.039C267.068 281.061 270.817 284.357 273.393 288.51C275.969 292.663 277.255 297.486 277.09 302.37C276.861 308.92 274.041 315.112 269.251 319.585C264.461 324.059 258.091 326.449 251.54 326.23H251.55Z" fill="#FDEEEE"/>
<path d="M343.55 230.5H343.48L326.16 229.91C325.81 229.904 325.466 229.809 325.162 229.634C324.858 229.459 324.602 229.21 324.42 228.91L319.75 221.06C317.233 220.139 314.798 219.009 312.47 217.68L305 218.97C304.652 219.034 304.294 219.008 303.958 218.897C303.623 218.785 303.321 218.59 303.08 218.33L291.25 205.67C291.002 205.408 290.826 205.086 290.738 204.736C290.65 204.385 290.655 204.018 290.75 203.67L292.64 196.26C291.469 193.859 290.512 191.359 289.78 188.79L282.25 183.59C281.958 183.389 281.722 183.118 281.563 182.802C281.404 182.485 281.327 182.134 281.34 181.78L281.93 164.46C281.942 164.11 282.039 163.769 282.214 163.465C282.388 163.162 282.634 162.906 282.93 162.72L290.8 158.05C291.708 155.539 292.836 153.113 294.17 150.8L292.79 143.27C292.726 142.92 292.751 142.56 292.863 142.223C292.974 141.885 293.17 141.582 293.43 141.34L306.09 129.52C306.352 129.271 306.674 129.093 307.024 129.004C307.374 128.914 307.741 128.917 308.09 129.01L315.53 130.91C317.925 129.738 320.418 128.778 322.98 128.04L328.18 120.51C328.374 120.211 328.643 119.969 328.962 119.809C329.28 119.649 329.635 119.577 329.99 119.6L347.3 120.2C347.652 120.207 347.997 120.303 348.302 120.477C348.608 120.652 348.865 120.901 349.05 121.2L353.72 129.06C356.22 129.977 358.635 131.108 360.94 132.44L368.5 131.05C368.848 130.985 369.207 131.01 369.543 131.122C369.879 131.234 370.181 131.429 370.42 131.69L382.25 144.35C382.497 144.613 382.672 144.935 382.76 145.285C382.847 145.635 382.844 146.002 382.75 146.35L380.85 153.78C382.022 156.176 382.985 158.669 383.73 161.23L391.25 166.43C391.542 166.63 391.779 166.902 391.938 167.218C392.097 167.534 392.174 167.886 392.16 168.24L391.57 185.55C391.559 185.901 391.461 186.244 391.287 186.549C391.113 186.854 390.867 187.112 390.57 187.3L382.7 191.97C381.787 194.475 380.659 196.898 379.33 199.21L380.71 206.75C380.775 207.098 380.75 207.457 380.638 207.793C380.526 208.128 380.331 208.43 380.07 208.67L367.33 220.5C367.068 220.748 366.746 220.925 366.396 221.012C366.046 221.1 365.679 221.096 365.33 221L357.93 219.11C355.519 220.276 353.013 221.236 350.44 221.98L345.29 229.5C345.105 229.797 344.849 230.043 344.546 230.218C344.242 230.392 343.9 230.489 343.55 230.5V230.5ZM327.46 225.73L342.46 226.24L347.46 219.05C347.737 218.63 348.162 218.33 348.65 218.21C351.464 217.44 354.195 216.392 356.8 215.08V215.08C357.255 214.861 357.771 214.808 358.26 214.93L365.26 216.72L376.26 206.47L375 199.24C374.903 198.735 374.996 198.211 375.26 197.77C376.746 195.294 377.969 192.67 378.91 189.94C379.069 189.445 379.404 189.025 379.85 188.76L387.38 184.3L387.89 169.3L380.69 164.3C380.311 164.041 380.027 163.665 379.88 163.23C379.88 163.18 379.88 163.12 379.88 163.06C379.11 160.296 378.065 157.616 376.76 155.06C376.529 154.602 376.472 154.076 376.6 153.58L378.4 146.5L368.15 135.5L360.96 136.82C360.458 136.911 359.94 136.819 359.5 136.56C357.019 135.072 354.392 133.842 351.66 132.89C351.504 132.84 351.353 132.773 351.21 132.69C350.922 132.51 350.682 132.263 350.51 131.97L346 124.42L331 123.9L326 131.11C325.702 131.533 325.262 131.834 324.76 131.96C321.975 132.721 319.275 133.763 316.7 135.07C316.246 135.302 315.723 135.358 315.23 135.23L308.15 133.43L297.15 143.68L298.47 150.85C298.549 151.302 298.482 151.768 298.28 152.18L298.18 152.35C296.693 154.836 295.47 157.47 294.53 160.21C294.365 160.68 294.039 161.076 293.61 161.33L286.08 165.8L285.57 180.8L292.78 185.8C293.191 186.081 293.489 186.499 293.62 186.98C294.37 189.788 295.412 192.51 296.73 195.1C296.802 195.247 296.859 195.402 296.9 195.56C296.976 195.889 296.976 196.231 296.9 196.56L295.1 203.56L305.35 214.56L312.49 213.25C312.989 213.159 313.504 213.251 313.94 213.51C316.44 214.995 319.084 216.225 321.83 217.18C322.326 217.327 322.745 217.66 323 218.11L327.46 225.73ZM336.73 206.76C336.36 206.76 335.99 206.76 335.62 206.76C327.307 206.614 319.389 203.19 313.588 197.234C307.787 191.278 304.573 183.271 304.647 174.957C304.72 166.643 308.074 158.695 313.979 152.842C319.883 146.989 327.861 143.705 336.175 143.705C344.49 143.705 352.467 146.989 358.372 152.842C364.277 158.695 367.631 166.643 367.704 174.957C367.777 183.271 364.564 191.278 358.763 197.234C352.962 203.19 345.043 206.614 336.73 206.76ZM336.73 147.67C329.466 147.795 322.545 150.785 317.474 155.989C312.404 161.192 309.594 168.188 309.656 175.453C309.719 182.719 312.649 189.665 317.809 194.78C322.968 199.896 329.94 202.766 337.205 202.766C344.471 202.766 351.442 199.896 356.602 194.78C361.762 189.665 364.692 182.719 364.754 175.453C364.817 168.188 362.007 161.192 356.936 155.989C351.866 150.785 344.945 147.795 337.68 147.67H336.73Z" fill="#FDEEEE"/>
<path d="M383.44 105.82L376.26 103.9L374.34 96.72L377.15 93.92L380.11 100.05L386.25 103.02L383.44 105.82Z" fill="#FDEEEE"/>
<path d="M383.88 101.02C384.191 100.709 384.437 100.341 384.605 99.935C384.773 99.5292 384.86 99.0943 384.86 98.6551C384.86 98.2158 384.773 97.7809 384.605 97.3751C384.437 96.9693 384.191 96.6006 383.88 96.2901C383.57 95.9795 383.201 95.7331 382.795 95.565C382.39 95.397 381.955 95.3104 381.515 95.3104C381.076 95.3104 380.641 95.397 380.235 95.565C379.83 95.7331 379.461 95.9795 379.15 96.2901L382.72 90.9301L387.5 93.3501L388.55 98.3501L383.88 101.02Z" fill="#FDEEEE"/>
<path d="M376.58 94.5L381.84 89.24L389 91.15L390.93 98.32L385.67 103.58L378.5 101.65L376.58 94.5ZM386.13 98.8C386.598 98.3314 386.917 97.7344 387.046 97.0847C387.175 96.4349 387.108 95.7615 386.855 95.1496C386.601 94.5377 386.172 94.0147 385.621 93.6467C385.07 93.2788 384.423 93.0824 383.76 93.0824C383.098 93.0824 382.45 93.2788 381.899 93.6467C381.348 94.0147 380.919 94.5377 380.665 95.1496C380.412 95.7615 380.345 96.4349 380.474 97.0847C380.603 97.7344 380.922 98.3314 381.39 98.8C382.024 99.4215 382.877 99.7679 383.764 99.7642C384.652 99.7604 385.502 99.4068 386.13 98.78V98.8Z" fill="#FCDEDE"/>
<path d="M90.22 297.21L94.07 296.17L95.1 292.32L93.6 290.82L92.01 294.11L88.71 295.7L90.22 297.21Z" fill="#FDEEEE"/>
<path d="M90.0004 294.63C89.6995 294.286 89.5406 293.841 89.5557 293.385C89.5708 292.928 89.7589 292.494 90.0819 292.171C90.4049 291.848 90.8386 291.66 91.2951 291.645C91.7516 291.63 92.1968 291.789 92.5404 292.09L90.6304 289.22L88.0004 290.5L87.4404 293.2L90.0004 294.63Z" fill="#FDEEEE"/>
<path d="M93.9005 291.12L91.0805 288.3L87.2305 289.3L86.2305 293.15L89.0005 296L92.8505 295L93.9005 291.12ZM88.7805 293.43C88.5951 293.268 88.445 293.069 88.3395 292.846C88.234 292.624 88.1754 292.382 88.1672 292.135C88.159 291.889 88.2015 291.644 88.292 291.415C88.3826 291.185 88.5192 290.977 88.6934 290.803C88.8677 290.629 89.0758 290.492 89.305 290.402C89.5342 290.311 89.7795 290.269 90.0258 290.277C90.2721 290.285 90.5141 290.344 90.7368 290.449C90.9595 290.555 91.1581 290.705 91.3205 290.89C91.6214 291.234 91.7803 291.679 91.7652 292.135C91.7501 292.592 91.562 293.026 91.239 293.349C90.916 293.672 90.4823 293.86 90.0258 293.875C89.5693 293.89 89.1241 293.731 88.7805 293.43V293.43Z" fill="#FCDEDE"/>
<path d="M76.3597 86.16L79.5597 89.36C79.9599 89.7533 80.4986 89.9737 81.0597 89.9737C81.6208 89.9737 82.1595 89.7533 82.5597 89.36V89.36C82.9506 88.9586 83.1694 88.4204 83.1694 87.86C83.1694 87.2997 82.9506 86.7615 82.5597 86.36L79.3697 83.17C78.9682 82.7791 78.43 82.5603 77.8697 82.5603C77.3093 82.5603 76.7711 82.7791 76.3697 83.17V83.17C75.978 83.5685 75.7577 84.1043 75.7559 84.663C75.754 85.2217 75.9707 85.759 76.3597 86.16Z" fill="#FCDEDE"/>
<path d="M74.1102 78.21C74.9452 77.9778 75.8299 77.9945 76.6556 78.2581C77.4812 78.5216 78.212 79.0206 78.758 79.6936C79.3041 80.3666 79.6418 81.1845 79.7295 82.0467C79.8173 82.909 79.6514 83.7781 79.2521 84.5474C78.8528 85.3166 78.2376 85.9526 77.482 86.3771C76.7263 86.8016 75.8632 86.9962 74.9985 86.937C74.1338 86.8778 73.3052 86.5674 72.6145 86.0439C71.9238 85.5204 71.4009 84.8065 71.1102 83.99C70.9256 83.4136 70.8569 82.8064 70.908 82.2032C70.959 81.6001 71.1288 81.0131 71.4077 80.4759C71.6865 79.9387 72.0688 79.4619 72.5326 79.073C72.9965 78.6842 73.5326 78.3909 74.1102 78.21V78.21Z" fill="#FDEEEE"/>
<path d="M70.6296 83.4546L71.0928 84.7439L80.5981 81.3293L80.1349 80.0399L70.6296 83.4546Z" fill="#FCDEDE"/>
<path d="M250 428.06C357.083 428.06 443.89 422.992 443.89 416.74C443.89 410.488 357.083 405.42 250 405.42C142.918 405.42 56.1104 410.488 56.1104 416.74C56.1104 422.992 142.918 428.06 250 428.06Z" fill="#FCDEDE"/>
<path d="M222.45 305.34C223.84 282.94 221.29 242.21 263.4 247.61C308.53 253.38 295.62 306.16 295.62 306.16L222.45 305.34Z" fill="#8F3535"/>
<path d="M251.51 291.88C261.661 291.88 269.89 283.651 269.89 273.5C269.89 263.349 261.661 255.12 251.51 255.12C241.359 255.12 233.13 263.349 233.13 273.5C233.13 283.651 241.359 291.88 251.51 291.88Z" fill="white"/>
<path d="M253.93 255.15C245.22 253.67 235.93 260.08 235 266.58L269.51 269.76C268.29 262.35 260.83 256.33 253.93 255.15Z" fill="#8F3535"/>
<path d="M265.58 273.04C265.33 277.85 262.71 281.62 259.73 281.46C256.75 281.3 254.53 277.29 254.73 272.46C254.93 267.63 257.6 263.88 260.58 264.04C263.56 264.2 265.82 268.24 265.58 273.04Z" fill="#8F3535"/>
<path d="M251.51 292.88C247.677 292.88 243.93 291.743 240.743 289.614C237.556 287.484 235.072 284.458 233.605 280.916C232.138 277.375 231.754 273.478 232.502 269.719C233.25 265.96 235.096 262.507 237.806 259.796C240.517 257.086 243.97 255.24 247.729 254.492C251.488 253.745 255.385 254.128 258.926 255.595C262.468 257.062 265.494 259.546 267.624 262.733C269.753 265.92 270.89 269.667 270.89 273.5C270.885 278.638 268.841 283.565 265.208 287.198C261.574 290.831 256.648 292.875 251.51 292.88V292.88ZM251.51 256.13C248.072 256.13 244.711 257.15 241.853 259.06C238.995 260.97 236.767 263.685 235.452 266.861C234.137 270.038 233.793 273.533 234.465 276.904C235.136 280.276 236.792 283.373 239.224 285.803C241.656 288.233 244.753 289.888 248.125 290.557C251.497 291.227 254.992 290.881 258.168 289.564C261.343 288.247 264.057 286.018 265.966 283.159C267.874 280.299 268.892 276.938 268.89 273.5C268.885 268.893 267.051 264.477 263.793 261.22C260.534 257.963 256.117 256.133 251.51 256.13V256.13Z" fill="#EE5858"/>
<path opacity="0.3" d="M290.49 304.78H290.37C290.305 304.766 290.245 304.739 290.191 304.701C290.137 304.663 290.092 304.614 290.057 304.558C290.023 304.502 290 304.44 289.99 304.375C289.98 304.31 289.983 304.244 290 304.18C290 304.05 293.22 290.49 289.91 276.78C289.878 276.647 289.9 276.508 289.971 276.391C290.043 276.275 290.157 276.192 290.29 276.16C290.422 276.128 290.562 276.15 290.678 276.222C290.795 276.293 290.878 276.407 290.91 276.54C294.28 290.54 291.03 304.28 291 304.41C290.97 304.521 290.903 304.618 290.81 304.685C290.717 304.753 290.604 304.786 290.49 304.78V304.78Z" fill="white"/>
<path opacity="0.3" d="M287.7 269.26C287.604 269.259 287.51 269.231 287.429 269.18C287.348 269.129 287.283 269.056 287.24 268.97C285.997 266.223 284.404 263.648 282.5 261.31C282.417 261.208 282.378 261.077 282.391 260.946C282.404 260.815 282.469 260.694 282.57 260.61C282.621 260.567 282.68 260.535 282.743 260.516C282.807 260.496 282.874 260.49 282.94 260.496C283.006 260.503 283.07 260.522 283.128 260.554C283.187 260.585 283.238 260.628 283.28 260.68C285.231 263.086 286.868 265.73 288.15 268.55C288.179 268.609 288.195 268.673 288.198 268.738C288.202 268.804 288.192 268.869 288.169 268.931C288.147 268.992 288.113 269.049 288.068 269.097C288.023 269.145 287.97 269.183 287.91 269.21C287.844 269.241 287.773 269.258 287.7 269.26V269.26Z" fill="white"/>
<path d="M128.73 410.42H128.36C127.034 410.383 125.777 409.82 124.865 408.856C123.954 407.893 123.463 406.606 123.5 405.28C123.537 403.954 124.1 402.697 125.063 401.785C126.027 400.874 127.314 400.383 128.64 400.42H128.73C131.62 400.42 138.57 396.91 153.11 373.99C153.496 373.381 154.009 372.863 154.614 372.471C155.219 372.079 155.901 371.823 156.615 371.719C157.328 371.616 158.055 371.668 158.746 371.871C159.438 372.075 160.077 372.426 160.62 372.9C172.039 382.716 184.492 391.26 197.76 398.38C198.374 398.659 198.925 399.06 199.38 399.558C199.835 400.056 200.185 400.64 200.408 401.277C200.632 401.913 200.724 402.589 200.679 403.262C200.634 403.935 200.454 404.592 200.149 405.193C199.844 405.795 199.42 406.328 198.903 406.762C198.387 407.195 197.787 407.52 197.142 407.716C196.496 407.912 195.818 407.975 195.147 407.902C194.477 407.829 193.828 407.62 193.24 407.29C180.909 400.737 169.252 392.987 158.44 384.15C146.25 402.5 137.21 410.42 128.73 410.42Z" fill="#8F3535"/>
<path d="M159.671 372H159.241C158.455 371.886 157.746 371.465 157.27 370.83C156.794 370.194 156.589 369.396 156.701 368.61C157.411 363.61 156.531 344.98 150.221 330.48C149.941 329.839 149.893 329.121 150.087 328.449C150.28 327.777 150.703 327.194 151.281 326.8C164.981 317.47 194.161 316.35 195.401 316.31C195.794 316.297 196.187 316.361 196.556 316.5C196.925 316.639 197.263 316.849 197.551 317.118C197.839 317.387 198.071 317.71 198.234 318.069C198.397 318.428 198.487 318.816 198.501 319.21C198.514 319.604 198.449 319.997 198.31 320.366C198.172 320.735 197.962 321.073 197.693 321.36C197.423 321.648 197.1 321.88 196.741 322.043C196.382 322.206 195.994 322.297 195.601 322.31C195.331 322.31 169.821 323.31 156.721 330.51C162.301 344.95 163.571 362.94 162.641 369.45C162.533 370.16 162.174 370.808 161.629 371.276C161.084 371.744 160.389 372.001 159.671 372Z" fill="#8F3535"/>
<path d="M164.71 368.12C162.71 363.41 153.71 363.94 148.44 367.98C145.62 370.13 141.8 376.62 141.44 378.98C141.32 379.541 141.338 380.122 141.492 380.674C141.647 381.227 141.933 381.733 142.326 382.15C142.72 382.568 143.209 382.883 143.751 383.069C144.294 383.255 144.873 383.307 145.44 383.22C148.89 382.92 153.62 377.91 153.62 377.91C150.47 381 154.54 383.18 160.62 378.71C163.94 376.22 166.94 373.39 164.71 368.12Z" fill="#EE5858"/>
<path d="M336.711 306.66C336.664 306.67 336.617 306.67 336.571 306.66C336.507 306.643 336.447 306.613 336.395 306.572C336.343 306.531 336.3 306.48 336.268 306.422C336.237 306.365 336.217 306.301 336.21 306.235C336.204 306.169 336.211 306.103 336.231 306.04C337.561 301.4 339.011 298.57 340.921 297.04C340.621 295.964 340.677 294.821 341.081 293.78C341.547 292.565 342.369 291.519 343.441 290.78C343.149 290.465 342.942 290.082 342.839 289.666C342.736 289.25 342.74 288.814 342.851 288.4C343.213 287.147 343.962 286.041 344.991 285.24C344.62 284.825 344.416 284.287 344.421 283.73C344.421 280.73 349.931 276.21 356.181 275.35C356.313 275.331 356.448 275.366 356.555 275.447C356.661 275.528 356.732 275.647 356.751 275.78C356.769 275.913 356.734 276.047 356.654 276.154C356.573 276.261 356.453 276.331 356.321 276.35C350.381 277.16 345.401 281.46 345.421 283.73C345.418 284.068 345.547 284.395 345.781 284.64C347.126 283.728 348.639 283.093 350.232 282.772C351.826 282.45 353.467 282.45 355.061 282.77C358.131 283.36 359.381 284.01 359.241 284.94C358.961 286.69 352.431 287.06 348.051 286.54C347.266 286.469 346.502 286.248 345.801 285.89C344.858 286.561 344.156 287.519 343.801 288.62C343.715 288.911 343.715 289.221 343.802 289.513C343.889 289.804 344.059 290.063 344.291 290.26C346.151 289.26 348.761 288.9 352.211 289.66C356.741 290.66 356.911 291.21 357.021 291.54C357.056 291.657 357.059 291.781 357.029 291.899C356.999 292.017 356.937 292.124 356.851 292.21C355.901 293.21 348.951 292.74 345.461 291.88C345.039 291.784 344.632 291.633 344.251 291.43C343.218 292.058 342.422 293.011 341.991 294.14C341.702 294.87 341.622 295.667 341.761 296.44C341.939 296.333 342.122 296.237 342.311 296.15C344.381 295.15 346.881 295.33 349.971 296.65C351.971 297.52 352.971 298.3 353.071 299.09C353.075 299.293 353.024 299.493 352.924 299.669C352.823 299.845 352.677 299.99 352.501 300.09C350.971 301.09 345.631 300.95 342.851 299.47C342.211 299.123 341.679 298.607 341.311 297.98C339.681 299.48 338.361 302.15 337.161 306.34C337.124 306.431 337.062 306.509 336.983 306.566C336.903 306.623 336.808 306.655 336.711 306.66V306.66ZM342.131 297.33C342.409 297.847 342.833 298.272 343.351 298.55C345.611 299.75 350.051 300.02 351.711 299.35C352.051 299.21 352.101 299.1 352.101 299.1C352.101 299.1 352.051 298.54 349.601 297.49C346.801 296.29 344.601 296.12 342.771 296.97C342.55 297.076 342.336 297.197 342.131 297.33V297.33ZM345.471 290.76L345.721 290.83C348.977 291.58 352.328 291.833 355.661 291.58C354.479 291.142 353.261 290.807 352.021 290.58C349.867 289.996 347.589 290.059 345.471 290.76V290.76ZM346.731 285.14C347.192 285.305 347.672 285.413 348.161 285.46C353.161 286.05 357.551 285.36 358.161 284.73C357.991 284.58 357.321 284.15 354.841 283.68C352.05 283.123 349.152 283.645 346.731 285.14V285.14Z" fill="#8F3535"/>
<path d="M206.53 408.75C207.19 408.54 206.97 407.9 206.23 407.9H192.69C166.91 405.17 148.9 408.83 160.25 409.69C171.6 410.55 159.45 410.37 151.16 413.51C142.87 416.65 212.81 417.44 219.16 413.51C225 409.89 197.39 411.68 206.53 408.75Z" fill="#8F3535"/>
<path d="M303.47 412.74L185.67 408.83L180.78 294.61L319.89 297.72L303.47 412.74Z" fill="#EE5858"/>
<path d="M222.45 410.55C222.324 410.55 222.202 410.503 222.11 410.418C222.017 410.333 221.96 410.216 221.95 410.09L212.51 295.37C212.501 295.238 212.545 295.108 212.631 295.007C212.716 294.906 212.838 294.843 212.97 294.83C213.101 294.824 213.23 294.868 213.33 294.954C213.431 295.039 213.495 295.159 213.51 295.29L223 410.01C223.005 410.076 222.998 410.142 222.978 410.205C222.957 410.267 222.925 410.326 222.882 410.376C222.839 410.426 222.787 410.467 222.728 410.497C222.67 410.527 222.606 410.545 222.54 410.55H222.45Z" fill="#8F3535"/>
<path d="M303.47 412.74L335.13 407.92L345.1 301.71L319.89 297.72L303.47 412.74Z" fill="#EE5858"/>
<path opacity="0.2" d="M303.47 412.74L335.13 407.92L345.1 301.71L319.89 297.72L303.47 412.74Z" fill="#191C1F"/>
<path d="M195.73 386.82L192.83 318.95C192.759 317.273 193.032 315.6 193.633 314.033C194.234 312.466 195.15 311.039 196.325 309.84C197.499 308.642 198.907 307.696 200.461 307.063C202.015 306.43 203.683 306.123 205.36 306.16L293.421 308.16C295.154 308.199 296.86 308.605 298.426 309.352C299.991 310.099 301.381 311.169 302.502 312.492C303.624 313.815 304.452 315.36 304.933 317.027C305.414 318.693 305.535 320.443 305.29 322.16L295.53 390.5C295.108 393.493 293.596 396.225 291.284 398.172C288.971 400.119 286.022 401.144 283 401.05L207.61 398.55C204.516 398.454 201.571 397.192 199.368 395.017C197.165 392.841 195.865 389.913 195.73 386.82V386.82Z" fill="#8F3535"/>
<path d="M205.25 326.99L218.87 327.42L218.76 330.93L210.23 330.66L210.15 333.28L218.06 333.53L217.95 336.89L210.04 336.63L209.94 339.88L218.71 340.16L218.59 343.88L204.72 343.44L205.25 326.99Z" fill="white"/>
<path d="M221.4 343.97L221.92 327.52L230.4 327.79C231.616 327.784 232.826 327.959 233.99 328.31C234.816 328.586 235.521 329.137 235.99 329.87C236.338 330.404 236.572 331.004 236.677 331.632C236.783 332.26 236.758 332.904 236.604 333.522C236.45 334.14 236.171 334.72 235.783 335.225C235.395 335.731 234.908 336.151 234.35 336.46C233.782 336.753 233.171 336.955 232.54 337.06C233.005 337.21 233.447 337.425 233.85 337.7C234.142 337.971 234.404 338.273 234.63 338.6C234.888 338.911 235.116 339.246 235.31 339.6L237.62 344.45L231.88 344.26L229.32 339.15C229.117 338.662 228.818 338.22 228.44 337.85C228.081 337.59 227.653 337.444 227.21 337.43H226.76L226.55 344.1L221.4 343.97ZM226.82 334.35L228.96 334.42C229.415 334.392 229.866 334.329 230.31 334.23C230.645 334.179 230.949 334.004 231.16 333.74C231.377 333.473 231.5 333.143 231.51 332.8C231.529 332.571 231.497 332.341 231.416 332.127C231.334 331.912 231.206 331.719 231.04 331.56C230.482 331.199 229.823 331.028 229.16 331.07L226.92 331L226.82 334.35Z" fill="white"/>
<path d="M239.28 344.5L239.8 328.05L248.27 328.32C249.486 328.313 250.696 328.488 251.86 328.84C252.687 329.113 253.394 329.665 253.86 330.4C254.368 331.201 254.606 332.144 254.54 333.09C254.543 333.888 254.33 334.672 253.923 335.359C253.517 336.045 252.932 336.609 252.23 336.99C251.661 337.281 251.051 337.483 250.42 337.59C250.882 337.739 251.32 337.955 251.72 338.23C252.019 338.493 252.285 338.792 252.51 339.12C252.766 339.433 252.993 339.767 253.19 340.12L255.5 344.96L249.76 344.78L247.2 339.67C246.996 339.183 246.697 338.741 246.32 338.37C245.963 338.1 245.528 337.953 245.08 337.95H244.64L244.42 344.63L239.28 344.5ZM244.69 334.88L246.84 334.94C247.295 334.923 247.747 334.862 248.19 334.76C248.523 334.71 248.824 334.535 249.03 334.27C249.254 334.008 249.378 333.675 249.38 333.33C249.402 333.102 249.372 332.872 249.292 332.657C249.213 332.443 249.085 332.249 248.92 332.09C248.363 331.72 247.697 331.548 247.03 331.6L244.8 331.53L244.69 334.88Z" fill="white"/>
<path d="M256.321 336.86C256.243 335.712 256.421 334.561 256.842 333.49C257.262 332.419 257.915 331.455 258.752 330.666C259.59 329.877 260.592 329.284 261.686 328.928C262.78 328.573 263.939 328.464 265.081 328.61C266.232 328.572 267.38 328.765 268.455 329.179C269.531 329.593 270.512 330.219 271.341 331.02C272.08 331.872 272.639 332.865 272.983 333.939C273.327 335.014 273.448 336.147 273.341 337.27C273.349 338.904 272.965 340.515 272.221 341.97C271.546 343.16 270.538 344.127 269.321 344.75C267.886 345.436 266.297 345.739 264.711 345.63C263.128 345.643 261.563 345.302 260.131 344.63C258.911 343.968 257.915 342.959 257.271 341.73C256.514 340.224 256.186 338.54 256.321 336.86V336.86ZM261.401 337.04C261.251 338.301 261.536 339.574 262.211 340.65C262.526 341.002 262.909 341.287 263.337 341.488C263.764 341.688 264.228 341.801 264.7 341.819C265.172 341.836 265.643 341.759 266.085 341.591C266.527 341.423 266.93 341.167 267.271 340.84C268.012 339.717 268.363 338.382 268.271 337.04C268.405 335.835 268.111 334.621 267.441 333.61C267.137 333.261 266.763 332.981 266.342 332.789C265.92 332.597 265.463 332.499 265.001 332.5C264.534 332.466 264.066 332.539 263.631 332.712C263.196 332.885 262.806 333.155 262.491 333.5C261.733 334.521 261.349 335.77 261.401 337.04V337.04Z" fill="white"/>
<path d="M275.91 345.71L276.43 329.25L284.9 329.52C286.116 329.518 287.325 329.693 288.49 330.04C289.313 330.321 290.018 330.87 290.49 331.6C290.995 332.402 291.233 333.344 291.17 334.29C291.175 335.09 290.963 335.876 290.556 336.564C290.149 337.253 289.563 337.818 288.86 338.2C288.288 338.483 287.679 338.682 287.05 338.79C287.513 338.942 287.951 339.161 288.35 339.44C288.649 339.703 288.914 340.002 289.14 340.33C289.398 340.641 289.625 340.976 289.82 341.33L292.13 346.18L286.39 346L283.83 340.88C283.627 340.395 283.327 339.956 282.95 339.59C282.591 339.322 282.158 339.171 281.71 339.16H281.27L281.05 345.84L275.91 345.71ZM281.32 336.08L283.47 336.15C283.925 336.133 284.377 336.072 284.82 335.97C285.151 335.917 285.451 335.742 285.66 335.48C285.896 335.201 286.021 334.845 286.01 334.48C286.032 334.254 286.002 334.025 285.922 333.812C285.842 333.599 285.715 333.407 285.55 333.25C284.992 332.88 284.327 332.708 283.66 332.76L281.43 332.69L281.32 336.08Z" fill="white"/>
<path d="M284 373.66C283.812 373.664 283.626 373.627 283.453 373.553C283.281 373.479 283.126 373.369 283 373.23L274.44 363.86L265.2 372.3C264.944 372.535 264.605 372.658 264.258 372.643C263.911 372.628 263.585 372.476 263.35 372.22L254.79 362.85L245.55 371.29C245.294 371.525 244.955 371.648 244.608 371.633C244.261 371.618 243.935 371.466 243.7 371.21L235.13 361.84L225.9 370.28C225.765 370.402 225.607 370.495 225.435 370.554C225.263 370.612 225.081 370.635 224.9 370.62C224.552 370.599 224.226 370.445 223.99 370.19L215.43 360.83L206.2 369.26C205.942 369.495 205.602 369.619 205.253 369.604C204.905 369.589 204.576 369.436 204.34 369.18C204.223 369.053 204.133 368.904 204.074 368.742C204.015 368.58 203.989 368.408 203.998 368.236C204.006 368.064 204.049 367.895 204.123 367.74C204.197 367.584 204.301 367.445 204.43 367.33L214.63 358C214.888 357.765 215.228 357.641 215.576 357.656C215.925 357.671 216.253 357.824 216.49 358.08L225.05 367.45L234.28 359.01C234.542 358.78 234.881 358.658 235.23 358.67C235.578 358.689 235.905 358.843 236.14 359.1L244.7 368.47L253.94 360.03C254.066 359.913 254.214 359.821 254.376 359.762C254.538 359.702 254.709 359.675 254.882 359.683C255.054 359.69 255.223 359.732 255.379 359.805C255.535 359.879 255.674 359.982 255.79 360.11L264.35 369.48L273.59 361.04C273.846 360.805 274.185 360.682 274.531 360.697C274.878 360.712 275.205 360.864 275.44 361.12L285 371.5C285.171 371.691 285.282 371.927 285.321 372.181C285.36 372.434 285.324 372.693 285.218 372.926C285.112 373.16 284.94 373.357 284.724 373.494C284.508 373.632 284.256 373.703 284 373.7V373.66Z" fill="white"/>
<path d="M125.75 415.17L119.49 412.18L113.91 385.01L116.94 381.68L125.75 415.17Z" fill="#EE5858"/>
<path d="M125.75 415.17L134.06 410.31L126.94 387.93L116.94 381.68L125.75 415.17Z" fill="#EE5858"/>
<path opacity="0.2" d="M125.75 415.17L134.06 410.31L126.94 387.93L116.94 381.68L125.75 415.17Z" fill="#191C1F"/>
<path d="M262 420.11H261.31C259.984 420.074 258.727 419.513 257.814 418.55C256.902 417.587 256.409 416.301 256.445 414.975C256.481 413.649 257.042 412.391 258.005 411.479C258.968 410.567 260.254 410.074 261.58 410.11C269.28 410.36 285.58 405.63 294.9 396.59C295.463 396.038 296.148 395.627 296.9 395.39C312.69 390.65 318.56 400.22 318.8 400.63L310.2 405.72C310.23 405.784 310.267 405.844 310.31 405.9C310.22 405.77 307.98 402.9 300.86 404.66C289.17 415.32 271.23 420.11 262 420.11Z" fill="#8F3535"/>
<path d="M261.39 426.75L243.18 425.61L241.75 392.03L266.22 392.94L261.39 426.75Z" fill="#EE5858"/>
<path d="M261.391 426.75L265.651 422.51L268.291 401.58L266.221 392.94L261.391 426.75Z" fill="#EE5858"/>
<path opacity="0.2" d="M261.391 426.75L265.651 422.51L268.291 401.58L266.221 392.94L261.391 426.75Z" fill="#191C1F"/>
<path d="M366.91 414.04C366.257 414.039 365.621 413.825 365.1 413.43C354.7 405.53 340.65 391.5 335.26 377.97C335.18 377.774 335.122 377.569 335.09 377.36C332.46 361.72 329.95 328.81 329.84 327.42C329.811 327.026 329.859 326.63 329.983 326.255C330.106 325.879 330.302 325.532 330.56 325.233C331.08 324.628 331.82 324.255 332.615 324.195C333.411 324.135 334.198 324.394 334.803 324.915C335.407 325.435 335.781 326.174 335.84 326.97C335.84 327.3 338.41 360.53 340.97 376.04C346.35 389.2 360.97 402.71 368.75 408.65C369.251 409.03 369.62 409.558 369.805 410.159C369.99 410.76 369.981 411.404 369.78 412C369.578 412.595 369.195 413.113 368.684 413.479C368.173 413.845 367.559 414.041 366.93 414.04H366.91Z" fill="#8F3535"/>
<path d="M380.78 415.55C378.46 415.55 375.83 414.5 372.96 412.43C372.316 411.963 371.883 411.259 371.757 410.474C371.632 409.688 371.823 408.884 372.29 408.24C372.757 407.595 373.461 407.163 374.246 407.037C375.032 406.912 375.836 407.103 376.48 407.57C378.96 409.36 380.31 409.57 380.78 409.57C381.576 409.57 382.339 409.886 382.901 410.449C383.464 411.011 383.78 411.774 383.78 412.57C383.78 413.366 383.464 414.129 382.901 414.691C382.339 415.254 381.576 415.57 380.78 415.57V415.55Z" fill="#8F3535"/>
<path d="M373.801 412.34C377.011 402.81 390.171 404.69 394.711 406.11C398.589 407.236 402.308 408.848 405.781 410.91C408.231 412.51 408.271 415.2 405.001 416.73C401.001 418.61 390.841 416.94 390.841 416.94C396.081 419.23 390.841 422.94 381.631 419.3C378.641 418.12 372.671 415.84 373.801 412.34Z" fill="#EE5858"/>
<path d="M341.86 331.5C340.67 339.6 333.96 345.57 328.5 344.77C323.04 343.97 322.82 336.77 324.01 328.63C325.2 320.49 327.36 314.63 332.82 315.43C338.28 316.23 343.05 323.43 341.86 331.5Z" fill="#8F3535"/>
<path d="M209.881 299.2C210.333 299.2 210.701 298.833 210.701 298.38C210.701 297.927 210.333 297.56 209.881 297.56C209.428 297.56 209.061 297.927 209.061 298.38C209.061 298.833 209.428 299.2 209.881 299.2Z" fill="#8F3535"/>
<path d="M218.21 304.28C218.21 304.442 218.162 304.601 218.072 304.736C217.982 304.87 217.854 304.975 217.704 305.038C217.554 305.1 217.389 305.116 217.23 305.084C217.071 305.053 216.925 304.974 216.81 304.86C216.696 304.745 216.618 304.599 216.586 304.44C216.554 304.281 216.571 304.116 216.633 303.966C216.695 303.816 216.8 303.688 216.935 303.598C217.07 303.508 217.228 303.46 217.39 303.46C217.608 303.46 217.816 303.546 217.97 303.7C218.124 303.854 218.21 304.062 218.21 304.28Z" fill="#8F3535"/>
<path d="M219.13 401.18C219.13 401.342 219.082 401.501 218.992 401.636C218.902 401.77 218.774 401.876 218.624 401.938C218.474 402 218.309 402.016 218.15 401.984C217.991 401.953 217.845 401.875 217.73 401.76C217.616 401.645 217.538 401.499 217.506 401.34C217.474 401.181 217.491 401.016 217.553 400.866C217.615 400.716 217.72 400.588 217.855 400.498C217.99 400.408 218.148 400.36 218.31 400.36C218.528 400.36 218.736 400.446 218.89 400.6C219.044 400.754 219.13 400.963 219.13 401.18V401.18Z" fill="#8F3535"/>
<path d="M226.64 407.09C226.64 407.252 226.592 407.411 226.502 407.545C226.412 407.68 226.284 407.785 226.134 407.848C225.984 407.91 225.819 407.926 225.66 407.894C225.501 407.863 225.355 407.784 225.24 407.67C225.125 407.555 225.047 407.409 225.016 407.25C224.984 407.091 225 406.926 225.062 406.776C225.124 406.626 225.23 406.498 225.364 406.408C225.499 406.318 225.658 406.27 225.82 406.27C226.037 406.27 226.246 406.356 226.4 406.51C226.554 406.664 226.64 406.872 226.64 407.09Z" fill="#8F3535"/>
<path d="M82.51 416.92C81.0704 416.853 79.6643 416.463 78.3955 415.779C77.1268 415.095 76.0279 414.135 75.18 412.97C75.1385 412.916 75.1082 412.855 75.0912 412.789C75.0742 412.723 75.0707 412.655 75.081 412.588C75.0912 412.521 75.115 412.457 75.1509 412.399C75.1869 412.341 75.2341 412.292 75.2898 412.253C75.3455 412.214 75.4085 412.187 75.475 412.174C75.5415 412.16 75.61 412.16 75.6765 412.174C75.7429 412.188 75.8059 412.215 75.8615 412.254C75.9171 412.293 75.9642 412.342 76 412.4C77.87 415.1 82 416.53 83.8 415.68C83.9803 415.603 84.141 415.487 84.27 415.34C83.3605 414.94 82.5636 414.322 81.9497 413.54C81.3357 412.759 80.9237 411.838 80.75 410.86C80.52 409.59 80.34 407.86 81.38 407.64C82.82 407.32 84.7 410.79 85.38 413.42C85.5032 413.855 85.5472 414.309 85.51 414.76C86.0868 414.932 86.6935 414.98 87.29 414.9C87.5588 414.879 87.8204 414.803 88.058 414.675C88.2956 414.548 88.504 414.372 88.67 414.16C88.0119 413.663 87.466 413.033 87.0679 412.311C86.6699 411.589 86.4286 410.792 86.36 409.97C85.98 407.23 86.27 406.76 86.57 406.52C86.6672 406.445 86.7832 406.399 86.9051 406.387C87.027 406.375 87.1498 406.396 87.26 406.45C88.33 406.9 89.62 410.78 89.87 412.98C89.9 413.209 89.9 413.441 89.87 413.67C90.3011 413.836 90.7582 413.924 91.22 413.93C92.068 413.963 92.9067 413.744 93.63 413.3C93.49 413.21 93.36 413.11 93.23 413.01C92.23 412.12 91.77 410.7 91.95 408.68C92.09 407.11 92.44 406.25 93.07 405.98C93.2733 405.898 93.4958 405.878 93.7107 405.92C93.9255 405.963 94.1233 406.067 94.28 406.22C94.9551 406.965 95.4595 407.849 95.7583 408.809C96.0571 409.769 96.143 410.783 96.01 411.78C95.9232 412.195 95.7494 412.587 95.5 412.93C97.34 413.25 99.92 412.73 102.15 412.18C102.216 412.164 102.284 412.162 102.351 412.172C102.417 412.183 102.481 412.206 102.539 412.242C102.596 412.277 102.646 412.323 102.686 412.378C102.726 412.432 102.754 412.494 102.77 412.56C102.786 412.626 102.788 412.694 102.778 412.76C102.767 412.827 102.744 412.891 102.708 412.949C102.673 413.006 102.627 413.056 102.572 413.096C102.518 413.136 102.456 413.164 102.39 413.18C99.68 413.85 96.76 414.4 94.7 413.8C93.6945 414.564 92.4631 414.972 91.2 414.96C90.6395 414.953 90.0846 414.848 89.56 414.65C89.3274 415.01 89.0153 415.311 88.6477 415.532C88.2802 415.752 87.867 415.885 87.44 415.92C86.6883 416.017 85.9247 415.952 85.2 415.73C84.9667 416.123 84.6174 416.434 84.2 416.62C83.6637 416.836 83.0881 416.939 82.51 416.92V416.92ZM81.65 408.64C81.5117 409.32 81.5391 410.023 81.73 410.69C81.8711 411.49 82.2029 412.243 82.6973 412.887C83.1917 413.532 83.8341 414.047 84.57 414.39C84.556 414.153 84.5158 413.918 84.45 413.69C83.67 410.83 82.17 408.86 81.65 408.64V408.64ZM87.22 407.77C87.2265 408.46 87.2834 409.148 87.39 409.83C87.5003 411.049 88.0388 412.19 88.91 413.05C88.6639 411.204 88.0917 409.416 87.22 407.77V407.77ZM93.51 406.9C93.51 406.9 93.13 407.09 92.99 408.76C92.85 410.43 93.14 411.58 93.92 412.25C94.1046 412.399 94.306 412.527 94.52 412.63C94.783 412.349 94.969 412.004 95.06 411.63C95.2381 410.056 94.8129 408.473 93.87 407.2C93.66 406.94 93.54 406.9 93.51 406.9V406.9Z" fill="#8F3535"/>
<path d="M228.87 424.48L231.58 419.78L228.87 415.08H225.97L227.61 419.78L225.97 424.48H228.87Z" fill="#8F3535"/>
<path d="M226.16 422.23C225.826 422.251 225.491 422.204 225.176 422.091C224.86 421.978 224.572 421.801 224.327 421.572C224.083 421.343 223.888 421.066 223.755 420.759C223.622 420.451 223.554 420.12 223.554 419.785C223.554 419.45 223.622 419.119 223.755 418.811C223.888 418.504 224.083 418.227 224.327 417.998C224.572 417.769 224.86 417.592 225.176 417.479C225.491 417.366 225.826 417.319 226.16 417.34L221.56 416.42L220.33 420.14L222.39 423.28L226.16 422.23Z" fill="#8F3535"/>
<path d="M226.56 415.08H221.13L218.42 419.78L221.13 424.48H226.56L229.27 419.78L226.56 415.08ZM223.85 422.23C223.365 422.232 222.89 422.09 222.486 421.822C222.082 421.554 221.766 421.172 221.579 420.724C221.392 420.277 221.342 419.784 221.436 419.308C221.529 418.832 221.762 418.395 222.104 418.051C222.446 417.707 222.883 417.473 223.358 417.378C223.834 417.282 224.327 417.33 224.775 417.516C225.223 417.701 225.607 418.015 225.876 418.418C226.146 418.821 226.29 419.295 226.29 419.78C226.29 420.428 226.033 421.05 225.576 421.509C225.119 421.968 224.498 422.227 223.85 422.23V422.23Z" fill="#EE5858"/>
<path d="M417.89 414.76L415.88 411.27L417.89 407.78H420.04L418.83 411.27L420.04 414.76H417.89Z" fill="#EE5858"/>
<path d="M419.9 413.09C420.15 413.108 420.401 413.075 420.637 412.992C420.873 412.91 421.09 412.779 421.274 412.609C421.457 412.438 421.603 412.232 421.703 412.002C421.804 411.773 421.855 411.525 421.855 411.275C421.855 411.025 421.804 410.777 421.703 410.547C421.603 410.318 421.457 410.112 421.274 409.941C421.09 409.771 420.873 409.64 420.637 409.557C420.401 409.475 420.15 409.441 419.9 409.46L423.32 408.78L424.23 411.54L422.71 413.87L419.9 413.09Z" fill="#EE5858"/>
<path d="M419.61 407.78H423.61L425.61 411.27L423.61 414.76H419.61L417.61 411.27L419.61 407.78ZM421.61 413.09C421.971 413.092 422.324 412.987 422.624 412.788C422.925 412.589 423.16 412.306 423.299 411.973C423.438 411.641 423.476 411.275 423.407 410.921C423.338 410.567 423.165 410.242 422.911 409.987C422.657 409.731 422.332 409.557 421.979 409.486C421.626 409.415 421.259 409.45 420.926 409.588C420.593 409.725 420.308 409.958 420.108 410.258C419.907 410.557 419.8 410.91 419.8 411.27C419.799 411.509 419.845 411.747 419.936 411.968C420.027 412.189 420.161 412.391 420.33 412.56C420.5 412.729 420.701 412.863 420.922 412.954C421.144 413.045 421.381 413.091 421.62 413.09H421.61Z" fill="#8F3535"/>
<path d="M343 419.4H347.52C348.086 419.397 348.628 419.171 349.027 418.77C349.426 418.369 349.65 417.826 349.65 417.26V417.26C349.65 416.694 349.426 416.151 349.027 415.75C348.628 415.349 348.086 415.123 347.52 415.12H343C342.433 415.12 341.888 415.345 341.487 415.747C341.086 416.148 340.86 416.692 340.86 417.26V417.26C340.86 417.827 341.086 418.372 341.487 418.773C341.888 419.174 342.433 419.4 343 419.4V419.4Z" fill="#8F3535"/>
<path d="M335.73 415.36C336.149 414.597 336.783 413.974 337.552 413.567C338.322 413.159 339.194 412.986 340.06 413.069C340.927 413.151 341.751 413.486 342.43 414.031C343.109 414.576 343.613 415.307 343.881 416.136C344.149 416.964 344.169 417.853 343.938 418.692C343.707 419.531 343.236 420.285 342.582 420.859C341.928 421.434 341.12 421.805 340.257 421.926C339.395 422.047 338.517 421.912 337.73 421.54C336.648 420.982 335.831 420.02 335.456 418.862C335.082 417.704 335.18 416.446 335.73 415.36Z" fill="#EE5858"/>
<path d="M336.949 421.539L338.188 422.123L342.495 412.987L341.256 412.403L336.949 421.539Z" fill="#8F3535"/>
</svg>
