<svg width="17" height="17" viewBox="0 0 17 17" fill="none" xmlns="http://www.w3.org/2000/svg">
<path d="M10.375 14.75V11C10.375 10.8343 10.3092 10.6753 10.1919 10.5581C10.0747 10.4409 9.91576 10.375 9.75 10.375H7.25C7.08424 10.375 6.92527 10.4409 6.80806 10.5581C6.69085 10.6753 6.625 10.8343 6.625 11V14.75C6.625 14.9158 6.55915 15.0748 6.44194 15.192C6.32473 15.3092 6.16576 15.375 6 15.375H2.25C2.08424 15.375 1.92527 15.3092 1.80806 15.192C1.69085 15.0748 1.625 14.9158 1.625 14.75V7.52348C1.6264 7.43699 1.64509 7.35165 1.67998 7.27249C1.71486 7.19332 1.76523 7.12194 1.82812 7.06255L8.07812 1.38286C8.19334 1.27745 8.34384 1.21899 8.5 1.21899C8.65616 1.21899 8.80666 1.27745 8.92187 1.38286L15.1719 7.06255C15.2348 7.12194 15.2851 7.19332 15.32 7.27249C15.3549 7.35165 15.3736 7.43699 15.375 7.52348V14.75C15.375 14.9158 15.3092 15.0748 15.1919 15.192C15.0747 15.3092 14.9158 15.375 14.75 15.375H11C10.8342 15.375 10.6753 15.3092 10.5581 15.192C10.4408 15.0748 10.375 14.9158 10.375 14.75Z" stroke="#337999" stroke-width="1.5" stroke-linecap="round" stroke-linejoin="round"/>
</svg>
